<?xml version="1.0" encoding="UTF-8"?>
<svg version="1.1" xmlns="http://www.w3.org/2000/svg" width="292" height="378">
<path d="M0 0 C1.10948502 -0.00315216 2.21897003 -0.00630432 3.36207581 -0.009552 C4.57540085 -0.00752777 5.78872589 -0.00550354 7.03881836 -0.00341797 C8.28682724 -0.00437469 9.53483612 -0.00533142 10.82066345 -0.00631714 C13.47813311 -0.00699998 16.13551198 -0.00563743 18.79296875 -0.00097656 C21.48993135 0.00352924 24.18682668 0.00364506 26.88378906 -0.00097656 C55.38760701 -0.04669239 55.38760701 -0.04669239 68.81616211 1.12939453 C68.14238719 3.95869003 67.33150853 6.70070306 66.40600586 9.45751953 C66.13852539 10.25673828 65.87104492 11.05595703 65.59545898 11.87939453 C65.31766602 12.70439453 65.03987305 13.52939453 64.75366211 14.37939453 C64.47200195 15.21986328 64.1903418 16.06033203 63.90014648 16.92626953 C63.20684036 18.99443696 62.51213496 21.06212329 61.81616211 23.12939453 C63.67769368 23.8063151 65.53922526 24.48323568 67.40075684 25.16015625 C70.01155599 26.10953776 72.62235514 27.05891927 75.2331543 28.00830078 C76.18363647 28.35393066 77.13411865 28.69956055 78.11340332 29.05566406 C82.08107503 30.49845378 86.04874674 31.94124349 90.01641846 33.3840332 C91.03314636 33.75375244 92.04987427 34.12347168 93.09741211 34.50439453 C94.13363708 34.88120361 95.16986206 35.2580127 96.23748779 35.64624023 C97.28567688 36.0273999 98.33386597 36.40855957 99.41381836 36.80126953 C104.75134277 38.7421875 110.08886719 40.68310547 115.4263916 42.62402344 C116.96510925 43.18355713 116.96510925 43.18355713 118.53491211 43.75439453 C128.96199544 47.5460612 139.38907878 51.33772786 149.81616211 55.12939453 C150.14616211 69.31939453 150.47616211 83.50939453 150.81616211 98.12939453 C148.17616211 98.45939453 145.53616211 98.78939453 142.81616211 99.12939453 C141.82616211 99.62439453 141.82616211 99.62439453 140.81616211 100.12939453 C140.81616211 99.46939453 140.81616211 98.80939453 140.81616211 98.12939453 C135.58561621 97.87473238 130.36662974 97.72855559 125.13012695 97.67773438 C123.35463061 97.64581606 121.57939064 97.58548363 119.8059082 97.49511719 C109.82334507 96.74172089 109.82334507 96.74172089 101.07156372 100.65612793 C97.99133543 104.45424491 95.90601307 108.64781992 93.86659241 113.06732178 C92.13861531 116.45946926 89.84544025 119.39225799 87.50366211 122.37939453 C85.05161745 125.57313204 83.64880826 127.61138992 84.09960938 131.70043945 C84.86624948 134.89971327 85.80756153 137.99796463 86.81616211 141.12939453 C87.15881104 142.27263184 87.50145996 143.41586914 87.85449219 144.59375 C88.80241794 147.73822365 89.77523946 150.87245106 90.765625 154.00366211 C91.35694799 155.87324124 91.94309978 157.74445353 92.52905273 159.61572266 C99.3172539 181.24857883 106.38111631 202.79640265 113.36816406 224.3657074 C118.07145199 238.88507666 122.76728816 253.40685032 127.45928955 267.92987061 C128.3440603 270.6684458 129.22910798 273.40693121 130.11444092 276.14532471 C132.44344885 283.34961458 134.7682251 290.55524436 137.08563232 297.76327515 C137.77561177 299.90732299 138.46703601 302.05090647 139.15997314 304.19400024 C140.10795551 307.12692774 141.05066043 310.06149879 141.99194336 312.99658203 C142.26689133 313.84334 142.54183929 314.69009796 142.82511902 315.56251526 C143.07522232 316.34626022 143.32532562 317.13000519 143.58300781 317.9375 C143.79866898 318.60731903 144.01433014 319.27713806 144.23652649 319.96725464 C144.9541022 322.64393463 145.36058019 325.39590302 145.81616211 328.12939453 C138.55616211 327.79939453 131.29616211 327.46939453 123.81616211 327.12939453 C122.13949624 322.16861706 120.46575726 317.20703431 118.79907227 312.24291992 C118.23236402 310.55779343 117.66403485 308.87321109 117.09399414 307.18920898 C116.27044961 304.75535366 115.45293802 302.31953936 114.63647461 299.88330078 C114.38431183 299.1422963 114.13214905 298.40129181 113.87234497 297.63783264 C112.3633861 293.11238012 111.27744077 288.70458902 110.5451355 283.98570251 C109.96100132 281.94606187 109.96100132 281.94606187 107.85612488 280.94367981 C106.84634331 280.5406086 106.84634331 280.5406086 105.81616211 280.12939453 C104.65274135 279.37798754 103.50570572 278.60071481 102.37475586 277.80126953 C101.39067749 277.10723022 101.39067749 277.10723022 100.38671875 276.39916992 C99.68281006 275.89764404 98.97890137 275.39611816 98.25366211 274.87939453 C97.50914795 274.35144287 96.76463379 273.82349121 95.99755859 273.27954102 C89.60967843 268.73215761 83.29334549 264.0900734 76.99145508 259.42456055 C71.48274482 255.34780037 65.94202181 251.31870227 60.37866211 247.31689453 C55.40465096 243.73803935 50.45670807 240.13409479 45.56616211 236.44189453 C41.22214457 233.16875597 36.85063704 229.93856429 32.44116211 226.75439453 C31.86978516 226.33714111 31.2984082 225.9198877 30.7097168 225.48999023 C27.22311392 222.98737736 23.70134995 220.94874231 19.81616211 219.12939453 C19.59186523 219.64630859 19.36756836 220.16322266 19.13647461 220.69580078 C17.31028197 224.06183041 15.00501573 227.02793278 12.69116211 230.06689453 C12.1676416 230.76000732 11.64412109 231.45312012 11.10473633 232.16723633 C8.06775047 236.18225703 5.01262787 240.1834034 1.95678711 244.18408203 C0.61822943 245.93667397 -0.72031199 247.68927833 -2.05883789 249.44189453 C-2.73688477 250.3290918 -3.41493164 251.21628906 -4.11352539 252.13037109 C-8.57507271 257.98085068 -12.96435641 263.87910942 -17.30883789 269.81689453 C-22.44176832 276.82918207 -27.71109726 283.719004 -33.06616211 290.56274414 C-36.90115719 295.46793275 -40.6944928 300.4008549 -44.43383789 305.37939453 C-44.92062012 306.02618164 -45.40740234 306.67296875 -45.90893555 307.33935547 C-48.3380854 310.58751332 -50.71018986 313.86380144 -53.01196289 317.20361328 C-53.6882373 318.17862793 -53.6882373 318.17862793 -54.37817383 319.17333984 C-55.22495763 320.40139803 -56.06219381 321.63611613 -56.88793945 322.87841797 C-59.68595005 326.93757131 -59.68595005 326.93757131 -62.46508789 328.00830078 C-63.03227539 328.04826172 -63.59946289 328.08822266 -64.18383789 328.12939453 C-64.18383789 325.02352499 -63.68104248 323.64612011 -62.46899414 320.84423828 C-59.75612451 314.25857104 -57.70296682 307.49843501 -55.62133789 300.69189453 C-55.23526367 299.44601562 -54.84918945 298.20013672 -54.45141602 296.91650391 C-52.22428567 289.68876402 -50.11492894 282.44190573 -48.18383789 275.12939453 C-51.5205813 275.61206811 -54.29150995 276.36304003 -57.18383789 278.12939453 C-58.18847856 280.11197738 -58.18847856 280.11197738 -58.59399414 282.57080078 C-59.84799778 287.89824728 -61.37676462 293.06090089 -63.06665039 298.26220703 C-63.45898109 299.47577126 -63.45898109 299.47577126 -63.85923767 300.71385193 C-64.398978 302.3804374 -64.93997214 304.04661729 -65.48217773 305.71240234 C-66.31792849 308.28234825 -67.14756799 310.85421595 -67.97680664 313.42626953 C-68.50639209 315.05919963 -69.03632685 316.69201649 -69.56665039 318.32470703 C-69.81456329 319.09436798 -70.0624762 319.86402893 -70.31790161 320.65701294 C-72.06901995 326.01457659 -72.06901995 326.01457659 -73.18383789 327.12939453 C-74.81640547 327.28654107 -76.45519127 327.38024867 -78.09399414 327.44580078 C-79.08334961 327.48769531 -80.07270508 327.52958984 -81.09204102 327.57275391 C-82.13295898 327.61207031 -83.17387695 327.65138672 -84.24633789 327.69189453 C-85.29112305 327.73507812 -86.3359082 327.77826172 -87.41235352 327.82275391 C-90.00270924 327.92920688 -92.59318869 328.03042268 -95.18383789 328.12939453 C-93.15717065 320.37103273 -90.82089502 312.76166319 -88.27001953 305.16088867 C-87.88896057 304.01741974 -87.50790161 302.87395081 -87.11529541 301.6958313 C-86.07761274 298.58393043 -85.03728292 295.47293041 -83.99574208 292.36231923 C-82.89009881 289.05807086 -81.78795579 285.7526552 -80.68540955 282.44737244 C-78.58787992 276.16098655 -76.48730532 269.87562266 -74.38559669 263.59063286 C-72.04054032 256.57748842 -69.69870035 249.56327164 -67.35723233 242.5489285 C-63.77520922 231.81837551 -60.19150127 221.08838673 -56.60603786 210.3589828 C-50.78921869 192.952251 -44.9846383 175.54147184 -39.18383789 158.12939453 C-49.08383789 158.12939453 -58.98383789 158.12939453 -69.18383789 158.12939453 C-61.53863495 137.97385951 -53.46122707 118.0317256 -45.18383789 98.12939453 C-45.86844086 98.14636383 -46.55304382 98.16333313 -47.25839233 98.18081665 C-54.36285414 98.35492647 -61.46753313 98.51488406 -68.57250977 98.66650391 C-71.22656429 98.72502054 -73.88054092 98.78718549 -76.53442383 98.85302734 C-80.34189677 98.9468635 -84.14945412 99.02771564 -87.95727539 99.10595703 C-89.15001068 99.13815338 -90.34274597 99.17034973 -91.57162476 99.20352173 C-92.67261505 99.22369354 -93.77360535 99.24386536 -94.90795898 99.26464844 C-96.36690079 99.29795761 -96.36690079 99.29795761 -97.85531616 99.3319397 C-100.18383789 99.12939453 -100.18383789 99.12939453 -102.18383789 97.12939453 C-102.28854542 94.03995538 -102.27238191 91.04865932 -102.16040039 87.96533203 C-102.13537445 87.05812408 -102.11034851 86.15091614 -102.08456421 85.21621704 C-102.00223725 82.31190319 -101.90569723 79.40825658 -101.80883789 76.50439453 C-101.75061129 74.53827616 -101.69330774 72.57213023 -101.63696289 70.60595703 C-101.49663958 65.7800508 -101.34356591 60.95469591 -101.18383789 56.12939453 C-89.359554 51.82765239 -77.52446028 47.561952 -65.62231445 43.47973633 C-63.23236841 42.6579263 -60.84500644 41.82856533 -58.46020508 40.99194336 C-52.60872501 38.9464213 -46.76651414 36.97730883 -40.82244873 35.22192383 C-37.97411328 34.37287675 -35.14115152 33.47811292 -32.30865479 32.57781982 C-30.9542691 32.16018851 -29.59322345 31.76346748 -28.22601318 31.38995361 C-20.71940057 29.44278478 -20.71940057 29.44278478 -15.0406189 24.49938965 C-12.80424315 20.23031892 -11.50438707 15.74730191 -10.18383789 11.12939453 C-9.43533461 9.16241809 -8.66956601 7.20172227 -7.87133789 5.25439453 C-7.56583008 4.47322266 -7.26032227 3.69205078 -6.94555664 2.88720703 C-5.41293756 -0.64960624 -3.66158202 0.00297293 0 0 Z M51.81616211 44.12939453 C49.96042067 48.79076798 48.1091232 53.45387178 46.26196289 58.11865234 C45.63265559 59.70605321 45.00212615 61.29297012 44.37036133 62.87939453 C43.4636753 65.15678486 42.56136613 67.43586654 41.65991211 69.71533203 C41.37555298 70.42684418 41.09119385 71.13835632 40.79821777 71.87142944 C39.32239774 75.39279816 39.32239774 75.39279816 38.81616211 79.12939453 C68.84616211 79.12939453 98.87616211 79.12939453 129.81616211 79.12939453 C129.81616211 76.81939453 129.81616211 74.50939453 129.81616211 72.12939453 C124.35544792 69.27871662 118.95956121 66.97408163 113.12866211 65.00439453 C111.6661017 64.50272473 110.20385354 64.00014352 108.74194336 63.49658203 C108.10683838 63.28114746 107.4717334 63.06571289 106.81738281 62.84375 C105.39243272 62.33510001 103.9794236 61.79245591 102.57592773 61.22729492 C98.99134467 59.80126254 95.36426256 58.50001757 91.73413086 57.19580078 C90.96112137 56.91719711 90.18811188 56.63859344 89.39167786 56.35154724 C86.92930194 55.464172 84.46651566 54.57794317 82.00366211 53.69189453 C79.55156471 52.8092941 77.09956381 51.9264285 74.64778137 51.04295349 C73.12639904 50.49477797 71.60483499 49.94710639 70.08305359 49.40003967 C69.37904922 49.14645187 68.67504486 48.89286407 67.94970703 48.6315918 C67.26629242 48.38635773 66.58287781 48.14112366 65.87875366 47.88845825 C64.46257953 47.36728555 63.05326726 46.82719697 61.65029907 46.27145386 C58.10851023 44.87476911 55.67650263 44.12939453 51.81616211 44.12939453 Z M-35.11425781 55.78173828 C-36.61547432 56.32229858 -36.61547432 56.32229858 -38.14701843 56.8737793 C-39.7643261 57.46437134 -39.7643261 57.46437134 -41.41430664 58.06689453 C-43.07264275 58.66618774 -43.07264275 58.66618774 -44.76448059 59.27758789 C-48.30173669 60.5570545 -51.83654405 61.84314298 -55.37133789 63.12939453 C-57.76636207 63.99701861 -60.16154246 64.86421163 -62.55688477 65.73095703 C-68.43435874 67.85876751 -74.3098348 69.99202236 -80.18383789 72.12939453 C-80.18383789 74.43939453 -80.18383789 76.74939453 -80.18383789 79.12939453 C-65.66383789 79.12939453 -51.14383789 79.12939453 -36.18383789 79.12939453 C-33.73018239 73.60866967 -31.43995964 68.34494747 -29.43383789 62.69189453 C-29.00586914 61.49693359 -28.57790039 60.30197266 -28.13696289 59.07080078 C-27.08108538 56.32762295 -27.08108538 56.32762295 -27.18383789 54.12939453 C-30.32971044 54.12939453 -32.17591333 54.71594079 -35.11425781 55.78173828 Z M66.81616211 152.12939453 C65.47789313 153.72514511 65.47789313 153.72514511 64.17163086 155.82080078 C63.65922852 156.60132813 63.14682617 157.38185547 62.61889648 158.18603516 C61.81935547 159.42643555 61.81935547 159.42643555 61.00366211 160.69189453 C59.95659514 162.2980875 58.90843102 163.90356583 57.85913086 165.50830078 C57.09802002 166.6783667 57.09802002 166.6783667 56.3215332 167.87207031 C54.90936585 169.98963427 53.43732388 172.04422236 51.92944336 174.09423828 C49.62569383 176.78655135 49.62569383 176.78655135 49.81616211 179.12939453 C58.72616211 179.12939453 67.63616211 179.12939453 76.81616211 179.12939453 C75.30685946 172.09716187 75.30685946 172.09716187 73.30834961 165.31298828 C73.0440918 164.52988281 72.77983398 163.74677734 72.50756836 162.93994141 C72.2381543 162.15683594 71.96874023 161.37373047 71.69116211 160.56689453 C71.27543945 159.3400293 71.27543945 159.3400293 70.85131836 158.08837891 C70.17711074 156.10062885 69.49724007 154.11480104 68.81616211 152.12939453 C68.15616211 152.12939453 67.49616211 152.12939453 66.81616211 152.12939453 Z M-18.18383789 158.12939453 C-21.12225418 165.00558697 -23.36404389 171.87779118 -25.18383789 179.12939453 C-22.87383789 179.12939453 -20.56383789 179.12939453 -18.18383789 179.12939453 C-15.13075538 172.44168998 -12.18383789 165.55400477 -12.18383789 158.12939453 C-14.16383789 158.12939453 -16.14383789 158.12939453 -18.18383789 158.12939453 Z M-31.18383789 199.12939453 C-33.3729687 204.04295457 -35.18374542 208.94784664 -36.77758789 214.08251953 C-37.01038452 214.82338806 -37.24318115 215.56425659 -37.48303223 216.32757568 C-37.97211702 217.88678456 -38.4594372 219.44654794 -38.94506836 221.00683594 C-39.67788167 223.36026612 -40.41671467 225.71173975 -41.15649414 228.06298828 C-43.65874407 236.04460839 -46.0805192 244.03117382 -48.18383789 252.12939453 C-40.86964796 248.81345038 -40.86964796 248.81345038 -36.43286133 242.46582031 C-35.94803108 241.00913247 -35.48589128 239.54475318 -35.04321289 238.07470703 C-34.79009338 237.29553925 -34.53697388 236.51637146 -34.27618408 235.71359253 C-33.4753424 233.23309323 -32.70424962 230.7444925 -31.93383789 228.25439453 C-31.40193904 226.58840441 -30.86810338 224.92303134 -30.33227539 223.25830078 C-29.13226022 219.51922398 -27.95293141 215.77422752 -26.78674316 212.0244751 C-26.22863374 210.27019898 -25.63028447 208.52886244 -25.02856445 206.7890625 C-24.16716738 204.0769065 -24.01762563 201.95500298 -24.18383789 199.12939453 C-25.17383789 199.62439453 -25.17383789 199.62439453 -26.18383789 200.12939453 C-27.86038518 199.84996998 -29.52991943 199.52111206 -31.18383789 199.12939453 Z M32.81616211 200.12939453 C32.81616211 201.11939453 32.81616211 202.10939453 32.81616211 203.12939453 C34.14726737 204.09864594 35.49430781 205.05030357 36.89526367 205.91552734 C39.09911324 207.30819893 41.17977705 208.82315774 43.27709961 210.37158203 C44.07889648 210.96326172 44.88069336 211.55494141 45.70678711 212.16455078 C46.52663086 212.77169922 47.34647461 213.37884766 48.19116211 214.00439453 C49.40932617 214.90351563 49.40932617 214.90351563 50.65209961 215.82080078 C54.39911903 218.58903147 58.13500343 221.36961393 61.84741211 224.18408203 C66.11684956 227.39121617 70.51913047 230.38787307 74.94116211 233.37939453 C82.9840294 238.84848109 90.93326722 244.43262057 98.81616211 250.12939453 C99.95839415 246.70269841 99.66661307 245.92274957 98.56860352 242.59790039 C98.2714444 241.68362778 97.97428528 240.76935516 97.66812134 239.82737732 C97.33799042 238.84294144 97.0078595 237.85850555 96.66772461 236.84423828 C96.33574066 235.8322084 96.00375671 234.82017853 95.66171265 233.77748108 C94.59651582 230.53780798 93.5188002 227.30244774 92.44116211 224.06689453 C91.72162943 221.88160521 91.00286965 219.69606123 90.28491211 217.51025391 C88.96859777 213.51583905 87.65151469 209.52170651 86.32250977 205.53149414 C86.05524078 204.72779892 85.7879718 203.9241037 85.51260376 203.09605408 C84.84726389 201.0891054 84.84726389 201.0891054 83.81616211 199.12939453 C77.35661662 199.10401514 70.89708401 199.08651525 64.4375 199.07446289 C62.24055501 199.06943778 60.04361335 199.06261665 57.84667969 199.05395508 C54.68675919 199.04180978 51.52688296 199.03614794 48.36694336 199.03173828 C46.89636223 199.02399635 46.89636223 199.02399635 45.39607239 199.01609802 C44.01520699 199.01598473 44.01520699 199.01598473 42.60644531 199.01586914 C41.80036331 199.01364853 40.99428131 199.01142792 40.16377258 199.00914001 C37.63529737 199.13865919 35.28390063 199.57665628 32.81616211 200.12939453 Z " fill="#46494D" transform="translate(122.183837890625,21.87060546875)"/>
<path d="M0 0 C11.55 0 23.1 0 35 0 C29.02151193 15.0426474 22.96079505 30.04918445 16.83734131 45.0333252 C16.03304829 47.00148037 15.22921072 48.96982173 14.42584229 50.93835449 C13.27759018 53.75118883 12.12737552 56.56321257 10.9765625 59.375 C10.46446228 60.63017426 10.46446228 60.63017426 9.9420166 61.91070557 C9.61390991 62.7110321 9.28580322 63.51135864 8.94775391 64.3359375 C8.66703033 65.02220215 8.38630676 65.7084668 8.09707642 66.41552734 C6.44864005 70.29888375 4.71339414 74.14486318 3 78 C26.43 78 49.86 78 74 78 C71.75363901 83.61590247 71.75363901 83.61590247 69.7421875 86.36328125 C69.06361694 87.30385376 69.06361694 87.30385376 68.37133789 88.26342773 C67.63065063 89.27771851 67.63065063 89.27771851 66.875 90.3125 C61.76903461 97.41395441 56.88164916 104.63879102 52.0625 111.9375 C45.74436987 121.48154179 39.19853159 130.81633981 32.43017578 140.04492188 C30.28752267 142.97397037 28.17156359 145.92170702 26.0625 148.875 C25.66925537 149.42526855 25.27601074 149.97553711 24.87084961 150.54248047 C21.27543245 155.58769735 17.73310731 160.66971962 14.1875 165.75 C9.11692489 173.01440863 3.98126906 180.22661411 -1.2277832 187.39233398 C-3.95405218 191.14758874 -6.65262883 194.91843809 -9.3046875 198.7265625 C-9.8414209 199.49589111 -10.3781543 200.26521973 -10.93115234 201.05786133 C-11.94367608 202.51298997 -12.95212312 203.97096781 -13.95556641 205.43237305 C-16.68801936 209.35612936 -19.50800043 212.72941345 -23 216 C-19.14092444 203.13239113 -15.27730909 190.2661498 -11.40733528 177.40181446 C-10.14096301 173.19198218 -8.87542392 168.98190328 -7.61181641 164.77124023 C-6.37838627 160.6612485 -5.14271401 156.55193666 -3.9055748 152.44305992 C-3.44001912 150.89547629 -2.97522168 149.3476643 -2.5112648 147.7996006 C-1.85614838 145.61420998 -1.19813524 143.42970897 -0.53955078 141.24536133 C-0.16887482 140.01199539 0.20180115 138.77862946 0.58370972 137.50788879 C2.63549482 130.97729322 4.83531756 124.49404732 7 118 C-11.15 118 -29.3 118 -48 118 C-46.129967 112.389901 -44.29830051 107.09892755 -42.0234375 101.6875 C-41.74113281 101.01309875 -41.45882812 100.33869751 -41.16796875 99.64385986 C-40.55860379 98.18910423 -39.94778427 96.73495716 -39.33563232 95.28137207 C-38.34911505 92.93852673 -37.36665104 90.59401786 -36.38525391 88.24902344 C-35.34013318 85.75180264 -34.29481027 83.25466906 -33.24838257 80.75799561 C-29.26938803 71.26413156 -25.31882858 61.75851753 -21.375 52.25 C-21.02130341 51.39753693 -20.66760681 50.54507385 -20.30319214 49.66677856 C-13.45053926 33.14511811 -6.70930404 16.58046401 0 0 Z " fill="#FDC111" transform="translate(129,43)"/>
<path d="M0 0 C6.33457359 0.70384151 11.96408013 6.37413769 17 10 C16.01 10.33 15.02 10.66 14 11 C11.40625 9.3828125 11.40625 9.3828125 8.5 7.125 C4.54025297 4.02322857 4.54025297 4.02322857 0 2 C-0.22429687 2.51691406 -0.44859375 3.03382813 -0.6796875 3.56640625 C-2.50588014 6.93243588 -4.81114638 9.89853825 -7.125 12.9375 C-7.64852051 13.63061279 -8.17204102 14.32372559 -8.71142578 15.0378418 C-11.74841164 19.0528625 -14.80353424 23.05400887 -17.859375 27.0546875 C-19.19793268 28.80727944 -20.5364741 30.55988379 -21.875 32.3125 C-22.55304688 33.19969727 -23.23109375 34.08689453 -23.9296875 35.00097656 C-28.39123436 40.85145555 -32.78054797 46.74969365 -37.125 52.6875 C-42.31919909 59.78414382 -47.64984416 66.75952993 -53.07128906 73.68383789 C-57.80116971 79.72614535 -62.43084986 85.83527362 -67 92 C-67.66 91.67 -68.32 91.34 -69 91 C-68.5781543 90.44763672 -68.15630859 89.89527344 -67.72167969 89.32617188 C-52.54964803 69.47281157 -52.54964803 69.47281157 -37.640625 49.421875 C-31.260384 40.71416633 -24.79706475 32.0936165 -18.13842773 23.59643555 C-13.55789323 17.74450534 -9.07831634 11.82251968 -4.64208984 5.8605957 C-1.08918975 1.08918975 -1.08918975 1.08918975 0 0 Z " fill="#333639" transform="translate(142,239)"/>
<path d="M0 0 C0.33 0 0.66 0 1 0 C1 12.87 1 25.74 1 39 C19.48 39 37.96 39 57 39 C56.12288257 44.2627046 55.1476409 47.33121544 53 52 C52.3125 50.4375 52.3125 50.4375 52 48 C52.99 45.69 53.98 43.38 55 41 C27.775 41.495 27.775 41.495 0 42 C0 28.14 0 14.28 0 0 Z " fill="#2D3033" transform="translate(22,79)"/>
<path d="M0 0 C0.97226532 -0.00315216 1.94453064 -0.00630432 2.94625854 -0.009552 C3.98895905 -0.00752777 5.03165955 -0.00550354 6.10595703 -0.00341797 C7.19530548 -0.00437469 8.28465393 -0.00533142 9.40701294 -0.00631714 C11.7151902 -0.00699728 14.02336939 -0.00515454 16.33154297 -0.00097656 C19.8162889 0.00432233 23.30090288 -0.00090028 26.78564453 -0.00732422 C38.22692245 -0.01040066 49.58837135 0.09513646 60.98876953 1.12939453 C60.98876953 1.78939453 60.98876953 2.44939453 60.98876953 3.12939453 C37.88876953 3.12939453 14.78876953 3.12939453 -9.01123047 3.12939453 C-9.34123047 2.46939453 -9.67123047 1.80939453 -10.01123047 1.12939453 C-6.6150136 0.36542702 -3.47852553 0.00325716 0 0 Z " fill="#2F3237" transform="translate(129.01123046875,21.87060546875)"/>
<path d="M0 0 C23.1 0 46.2 0 70 0 C68 5 68 5 65 7 C65.33 5.68 65.66 4.36 66 3 C32.835 2.505 32.835 2.505 -1 2 C-0.67 1.34 -0.34 0.68 0 0 Z " fill="#FDDD08" transform="translate(133,121)"/>
<path d="M0 0 C0.33 0.66 0.66 1.32 1 2 C0.67 2.99 0.34 3.98 0 5 C22.77 5 45.54 5 69 5 C67 7 67 7 64.10202026 7.24050903 C62.86291901 7.23606781 61.62381775 7.23162659 60.34716797 7.22705078 C59.66412598 7.22734283 58.98108398 7.22763489 58.27734375 7.22793579 C56.01549659 7.22654039 53.75397724 7.21096967 51.4921875 7.1953125 C49.92563049 7.19158311 48.35907116 7.18873579 46.79251099 7.18673706 C42.66605203 7.17909476 38.53973349 7.15944124 34.41333008 7.1373291 C30.20395813 7.11688346 25.99456352 7.1077381 21.78515625 7.09765625 C13.523373 7.07619583 5.26170396 7.04205279 -3 7 C-1.125 1.125 -1.125 1.125 0 0 Z " fill="#1C285C" transform="translate(135,114)"/>
<path d="M0 0 C4.66200903 1.28630614 7.56798459 3.00605 11.1875 6.1875 C15.67523959 9.99749933 20.23864918 13.19686692 25.296875 16.19921875 C27.47592512 17.65086919 29.30258639 19.09091279 31.25390625 20.8125 C35.31501638 24.36528294 39.70593625 27.31952336 44.1875 30.3125 C65.2936497 44.58729941 65.2936497 44.58729941 67 48 C62.18013999 46.39958316 58.45077089 43.68886273 54.375 40.75 C53.63789795 40.22422363 52.9007959 39.69844727 52.14135742 39.15673828 C45.68038563 34.531 39.28580195 29.81489791 32.89819336 25.08862305 C25.98874276 19.9777464 19.01768369 14.9609286 12 10 C11.00613281 9.29617187 10.01226562 8.59234375 8.98828125 7.8671875 C4.63467561 4.70302306 4.63467561 4.70302306 0 2 C0 1.34 0 0.68 0 0 Z " fill="#35383A" transform="translate(153,224)"/>
<path d="M0 0 C1.40564713 0.00666183 1.40564713 0.00666183 2.83969116 0.01345825 C3.90063995 0.01360931 4.96158875 0.01376038 6.0546875 0.01391602 C7.20367523 0.02423859 8.35266296 0.03456116 9.53646851 0.04519653 C10.71002899 0.04802643 11.88358948 0.05085632 13.0927124 0.05377197 C16.85271262 0.06499548 20.61247739 0.09010411 24.37240601 0.11550903 C26.91667341 0.12553602 29.46094453 0.13466236 32.00521851 0.14285278 C38.25269511 0.1649419 44.50003374 0.19844079 50.74740601 0.24050903 C50.02330318 4.95735555 48.83523647 9.12999545 47.18490601 13.61550903 C46.83395874 14.57650513 46.83395874 14.57650513 46.47592163 15.55691528 C45.90440982 17.11982514 45.32656372 18.68041631 44.74740601 20.24050903 C43.74740601 17.24050903 43.74740601 17.24050903 48.74740601 2.24050903 C31.25740601 2.24050903 13.76740601 2.24050903 -4.25259399 2.24050903 C-2.25259399 0.24050903 -2.25259399 0.24050903 0 0 Z " fill="#1E2B59" transform="translate(85.25259399414063,160.75949096679688)"/>
<path d="M0 0 C7.96610412 4.66736497 15.15604067 10.10098174 22.36474609 15.84814453 C28.29947823 20.55572594 34.47679442 24.73818901 40.84765625 28.828125 C41.57855469 29.29734375 42.30945313 29.7665625 43.0625 30.25 C43.81660156 30.72953125 44.57070312 31.2090625 45.34765625 31.703125 C45.89292969 32.13109375 46.43820313 32.5590625 47 33 C47 33.66 47 34.32 47 35 C47.556875 35.2475 48.11375 35.495 48.6875 35.75 C51.39971127 37.21606015 53.63587365 39.02989471 56 41 C53.03605184 40.40121031 51.0117185 39.52611966 48.55859375 37.76953125 C47.90238037 37.30353516 47.24616699 36.83753906 46.57006836 36.35742188 C45.8663208 35.84759766 45.16257324 35.33777344 44.4375 34.8125 C43.69443604 34.28076172 42.95137207 33.74902344 42.18579102 33.20117188 C34.18495857 27.45638569 26.25382637 21.61567162 18.34863281 15.74023438 C15.98623433 13.98980024 13.61503739 12.25185663 11.2421875 10.515625 C9.76541919 9.42736256 8.28884746 8.33883329 6.8125 7.25 C6.122771 6.74855469 5.43304199 6.24710937 4.72241211 5.73046875 C3.11128939 4.53528744 1.54962875 3.2739017 0 2 C0 1.34 0 0.68 0 0 Z " fill="#323437" transform="translate(176,262)"/>
<path d="M0 0 C15.51 0 31.02 0 47 0 C47 0.66 47 1.32 47 2 C46.05125 2.144375 45.1025 2.28875 44.125 2.4375 C41.1065506 2.82935399 41.1065506 2.82935399 39 4 C39 3.34 39 2.68 39 2 C33.69683978 1.92025036 28.3978966 1.89965933 23.09423828 1.93286133 C21.29211053 1.93593553 19.48988036 1.92310454 17.68798828 1.89379883 C7.44879617 1.28398391 7.44879617 1.28398391 -1.54980469 5.07470703 C-3.07086588 7.35629882 -4.14997563 9.39963541 -5 12 C-5 9 -5 9 0 0 Z " fill="#2F3234" transform="translate(224,118)"/>
<path d="M0 0 C0.33 0.66 0.66 1.32 1 2 C1.91082085 2.01213028 1.91082085 2.01213028 2.84004211 2.02450562 C9.15033191 2.11045023 15.4603039 2.20994926 21.77026367 2.31738281 C24.12632924 2.35570602 26.482454 2.39055294 28.83862305 2.421875 C32.22205787 2.46745274 35.60508408 2.52545952 38.98828125 2.5859375 C40.04461258 2.59748871 41.10094391 2.60903992 42.18928528 2.62094116 C43.17007553 2.64081085 44.15086578 2.66068054 45.16137695 2.68115234 C46.02519485 2.69447601 46.88901276 2.70779968 47.77900696 2.7215271 C50 3 50 3 53 5 C34.85 5 16.7 5 -2 5 C-1.34 3.35 -0.68 1.7 0 0 Z " fill="#FDD80B" transform="translate(83,156)"/>
<path d="M0 0 C0.66 0 1.32 0 2 0 C1.67 1.65 1.34 3.3 1 5 C14.365 5.495 14.365 5.495 28 6 C29.18297127 11.91485637 28.50563209 12.88851053 26 18 C25.67 18 25.34 18 25 18 C25.45822468 14.53058454 25.89131683 11.32604951 27 8 C17.1 8 7.2 8 -3 8 C-2.01 5.36 -1.02 2.72 0 0 Z " fill="#36383A" transform="translate(56,172)"/>
<path d="M0 0 C0.99 0.99 1.98 1.98 3 3 C-0.96 8.28 -4.92 13.56 -9 19 C-10.62461694 15.75076612 -8.94088516 12.77729059 -7.875 9.5 C-7.67390625 8.81035156 -7.4728125 8.12070313 -7.265625 7.41015625 C-6.15327106 3.97258051 -5.55161118 2.30234082 -2.3203125 0.53125 C-1.17175781 0.26828125 -1.17175781 0.26828125 0 0 Z " fill="#F1C112" transform="translate(116,240)"/>
<path d="M0 0 C3.62350478 3.62350478 4.46832153 9.03179349 5.99609375 13.83911133 C6.62031001 15.7977837 7.25864582 17.75144613 7.8984375 19.70507812 C8.29546875 20.94322266 8.6925 22.18136719 9.1015625 23.45703125 C9.46588379 24.59116455 9.83020508 25.72529785 10.20556641 26.89379883 C10.93843836 29.75929665 11.16663309 32.06334894 11 35 C7.77603007 30.16404511 6.3443156 24.55174819 4.52172852 19.06616211 C3.8129473 16.93884252 3.09146173 14.81611398 2.36914062 12.69335938 C1.91849106 11.34661484 1.46859504 9.99961788 1.01953125 8.65234375 C0.60807861 7.42507568 0.19662598 6.19780762 -0.22729492 4.93334961 C-1 2 -1 2 0 0 Z " fill="#353738" transform="translate(219,199)"/>
<path d="M0 0 C3.62350478 3.62350478 4.46832153 9.03179349 5.99609375 13.83911133 C6.62031001 15.7977837 7.25864582 17.75144613 7.8984375 19.70507812 C8.29546875 20.94322266 8.6925 22.18136719 9.1015625 23.45703125 C9.46588379 24.59116455 9.83020508 25.72529785 10.20556641 26.89379883 C10.93843836 29.75929665 11.16663309 32.06334894 11 35 C8.40121579 32.40121579 7.92721253 30.11139082 6.8359375 26.6015625 C6.63900299 25.97019379 6.44206848 25.33882507 6.23916626 24.68832397 C5.82433967 23.35273696 5.41266299 22.01616812 5.00390625 20.67871094 C4.37870345 18.63709373 3.74090515 16.59972741 3.1015625 14.5625 C2.69975682 13.26325687 2.29869069 11.96378474 1.8984375 10.6640625 C1.53411621 9.48279785 1.16979492 8.3015332 0.79443359 7.08447266 C0 4 0 4 0 0 Z " fill="#313435" transform="translate(243,274)"/>
<path d="M0 0 C0.33 0 0.66 0 1 0 C1 1.65 1 3.3 1 5 C6.61 5 12.22 5 18 5 C18 5.66 18 6.32 18 7 C7.605 7.495 7.605 7.495 -3 8 C-1 1 -1 1 0 0 Z " fill="#2E3135" transform="translate(30,342)"/>
<path d="M0 0 C1 3 1 3 0.50024414 4.95532227 C-0.35343094 8.44459938 1.28754238 11.64375715 2.4375 14.9375 C5.36769993 23.41720326 5.36769993 23.41720326 5 28 C2.20379134 25.20379134 1.54695937 21.88460052 0.4375 18.1875 C0.21642578 17.47529297 -0.00464844 16.76308594 -0.23242188 16.02929688 C-3.38119981 5.74582572 -3.38119981 5.74582572 -1.5625 2.1875 C-1.046875 1.465625 -0.53125 0.74375 0 0 Z " fill="#343638" transform="translate(206,146)"/>
<path d="M0 0 C-22.86885246 9 -22.86885246 9 -27 9 C-27 8.34 -27 7.68 -27 7 C-23.25614186 5.62841249 -19.50408803 4.28080868 -15.75 2.9375 C-14.68652344 2.54755859 -13.62304688 2.15761719 -12.52734375 1.75585938 C-11.50253906 1.39169922 -10.47773437 1.02753906 -9.421875 0.65234375 C-8.47924805 0.31195068 -7.53662109 -0.02844238 -6.56542969 -0.37915039 C-3.89647093 -1.02505467 -2.5478969 -0.92531647 0 0 Z " fill="#323638" transform="translate(96,54)"/>
<path d="M0 0 C0.66 0 1.32 0 2 0 C2.33 1.98 2.66 3.96 3 6 C-3.93 5.67 -10.86 5.34 -18 5 C-16 3 -16 3 -12.3046875 2.8046875 C-10.82799892 2.817991 -9.35137642 2.84185165 -7.875 2.875 C-7.12089844 2.88402344 -6.36679687 2.89304687 -5.58984375 2.90234375 C-3.72642746 2.9259313 -1.86317407 2.96180281 0 3 C0 2.01 0 1.02 0 0 Z " fill="#2C2E30" transform="translate(265,344)"/>
<path d="M0 0 C0.66 0 1.32 0 2 0 C0.77078205 8.12751571 -1.8850717 15.41479291 -5 23 C-5.33 23 -5.66 23 -6 23 C-5.50387003 14.89654389 -2.679915 7.59474067 0 0 Z " fill="#33363A" transform="translate(39,312)"/>
<path d="M0 0 C0.33 0.66 0.66 1.32 1 2 C0.0980639 3.48819457 -0.82214129 4.96532813 -1.75 6.4375 C-2.51570313 7.67306641 -2.51570313 7.67306641 -3.296875 8.93359375 C-5.1792182 11.21744593 -6.1157546 11.65514457 -9 12 C-9 8.80389448 -8.45328458 7.58282374 -7 4.8125 C-6.62875 4.09707031 -6.2575 3.38164062 -5.875 2.64453125 C-5.441875 1.83048828 -5.441875 1.83048828 -5 1 C-4.34 1.99 -3.68 2.98 -3 4 C-2.01 2.68 -1.02 1.36 0 0 Z " fill="#2B2C30" transform="translate(67,338)"/>
<path d="M0 0 C0.66 0 1.32 0 2 0 C3.00935129 2.8928729 4.00768744 5.78878515 5 8.6875 C5.28617187 9.50412109 5.57234375 10.32074219 5.8671875 11.16210938 C8.42266949 18.67644333 8.42266949 18.67644333 8 23 C5.32275145 20.32275145 4.57589926 17.26991701 3.4375 13.75 C3.21642578 13.09386719 2.99535156 12.43773437 2.76757812 11.76171875 C1.48511576 7.86396305 0.5615769 4.06354522 0 0 Z " fill="#323536" transform="translate(254,310)"/>
<path d="M0 0 C-0.4794463 4.21912747 -1.16625119 6.79663178 -4 10 C-4 8.02 -4 6.04 -4 4 C-5.1446875 4.5259375 -5.1446875 4.5259375 -6.3125 5.0625 C-9 6 -9 6 -12 5 C-10.75747321 4.15556432 -9.5056114 3.3248542 -8.25 2.5 C-7.55390625 2.0359375 -6.8578125 1.571875 -6.140625 1.09375 C-4 0 -4 0 0 0 Z " fill="#35373A" transform="translate(78,293)"/>
<path d="M0 0 C0.66 0 1.32 0 2 0 C0.85210257 7.09883934 -1.11450374 13.41658619 -4 20 C-4.33 20 -4.66 20 -5 20 C-4.45484328 12.91296261 -2.39081395 6.67203894 0 0 Z " fill="#333639" transform="translate(60,249)"/>
<path d="M0 0 C0.33 0 0.66 0 1 0 C0.50793415 7.38098781 -1.06548879 14.17864563 -4 21 C-4.66 21.33 -5.32 21.66 -6 22 C-5.36320257 17.61538436 -4.33409513 13.53549965 -3 9.3125 C-2.649375 8.19488281 -2.29875 7.07726562 -1.9375 5.92578125 C-1.30335994 3.94673582 -0.65717231 1.97151692 0 0 Z " fill="#313437" transform="translate(85,232)"/>
<path d="M0 0 C0.66 0 1.32 0 2 0 C1.54256346 4.91744284 0.44926953 7.45996022 -3 11 C-5.27616078 12.77794533 -7.6005367 14.38497663 -10 16 C-10.66 15.67 -11.32 15.34 -12 15 C-10.71372289 13.82739389 -9.42080217 12.6620717 -8.125 11.5 C-7.40570313 10.8503125 -6.68640625 10.200625 -5.9453125 9.53125 C-4 8 -4 8 -2 8 C-1.34 5.36 -0.68 2.72 0 0 Z " fill="#333638" transform="translate(86,260)"/>
<path d="M0 0 C0.33 0.66 0.66 1.32 1 2 C-1.64 5.63 -4.28 9.26 -7 13 C-8 11 -8 11 -7.36328125 8.65234375 C-7.01652344 7.75644531 -6.66976562 6.86054688 -6.3125 5.9375 C-5.97863281 5.03902344 -5.64476563 4.14054688 -5.30078125 3.21484375 C-4 1 -4 1 -1.85546875 0.19140625 C-1.24316406 0.12824219 -0.63085938 0.06507813 0 0 Z " fill="#F0D60D" transform="translate(114,246)"/>
<path d="M0 0 C4.17576168 0.68416434 7.88080407 2.01365009 11.8125 3.5625 C13.55466797 4.24505859 13.55466797 4.24505859 15.33203125 4.94140625 C16.21246094 5.29074219 17.09289062 5.64007813 18 6 C13.9154674 7.72251754 10.63026304 6.07280563 6.75 4.5625 C6.1003125 4.31951172 5.450625 4.07652344 4.78125 3.82617188 C3.18383183 3.22714006 1.59139406 2.61485679 0 2 C0 1.34 0 0.68 0 0 Z " fill="#343739" transform="translate(205,75)"/>
<path d="M0 0 C0.33 0 0.66 0 1 0 C0.4061593 10.54579168 0.4061593 10.54579168 -3 15 C-3.556875 15.763125 -4.11375 16.52625 -4.6875 17.3125 C-5.120625 17.869375 -5.55375 18.42625 -6 19 C-5.39124245 14.39583374 -4.15277044 10.43516676 -2.4375 6.125 C-1.75494141 4.39636719 -1.75494141 4.39636719 -1.05859375 2.6328125 C-0.70925781 1.76398437 -0.35992187 0.89515625 0 0 Z " fill="#F3D00D" transform="translate(129,43)"/>
<path d="M0 0 C0.66 0 1.32 0 2 0 C0.75971762 6.17222879 -0.89603589 12.06682122 -3 18 C-3.33 18 -3.66 18 -4 18 C-3.41632611 11.69632197 -1.95928381 6.01339937 0 0 Z " fill="#303234" transform="translate(92,241)"/>
<path d="M0 0 C2.76276177 0.52268466 5.3260876 1.10869587 8 2 C8.33 4.97 8.66 7.94 9 11 C8.01 11 7.02 11 6 11 C5.67 8.69 5.34 6.38 5 4 C2.525 3.01 2.525 3.01 0 2 C0 1.34 0 0.68 0 0 Z " fill="#3D4042" transform="translate(246,90)"/>
<path d="M0 0 C6.6 0 13.2 0 20 0 C17.0998585 2.9001415 13.92575296 2.84030835 10 3 C6.96393906 2.88579081 3.95261221 2.7429987 1 2 C0.67 1.34 0.34 0.68 0 0 Z " fill="#3C3F42" transform="translate(155,22)"/>
<path d="M0 0 C5.96564796 0.50771472 10.63809899 2.38592128 16 5 C13.13421241 6.16161779 11.98369837 5.9946154 8.984375 5.00390625 C7.91703125 4.52824219 6.8496875 4.05257812 5.75 3.5625 C4.67234375 3.08941406 3.5946875 2.61632813 2.484375 2.12890625 C1.66453125 1.75636719 0.8446875 1.38382813 0 1 C0 0.67 0 0.34 0 0 Z " fill="#34373A" transform="translate(196,51)"/>
<path d="M0 0 C0.66 0 1.32 0 2 0 C2.53341184 1.57914015 3.05125763 3.16354387 3.5625 4.75 C3.85253906 5.63171875 4.14257812 6.5134375 4.44140625 7.421875 C5.01697435 10.07834316 4.89248371 11.47031106 4 14 C1.24297811 9.20517932 0.46671627 5.41390868 0 0 Z " fill="#333537" transform="translate(230,235)"/>
<path d="M0 0 C0.66 0 1.32 0 2 0 C0.70022952 4.8991349 -0.92373687 9.37559575 -3 14 C-4.37095624 10.30962722 -3.60010967 8.29116165 -2.0625 4.75 C-1.68222656 3.85796875 -1.30195312 2.9659375 -0.91015625 2.046875 C-0.60980469 1.37140625 -0.30945313 0.6959375 0 0 Z " fill="#36383B" transform="translate(72,132)"/>
<path d="M0 0 C0 4.24645065 -1.81750806 6.38524772 -4 10 C-4.66 10 -5.32 10 -6 10 C-6.66 11.32 -7.32 12.64 -8 14 C-8 9.96618977 -6.40426438 8.50566363 -4 5.3125 C-3.2575 4.31863281 -2.515 3.32476562 -1.75 2.30078125 C-1.1725 1.54152344 -0.595 0.78226563 0 0 Z " fill="#1E265B" transform="translate(121,239)"/>
<path d="M0 0 C0.66 0.33 1.32 0.66 2 1 C1.38461538 8.50769231 1.38461538 8.50769231 -0.5625 11 C-1.036875 11.33 -1.51125 11.66 -2 12 C-1.44687265 7.97007218 -0.8441938 3.97977076 0 0 Z " fill="#383A3C" transform="translate(83,178)"/>
<path d="M0 0 C1.12377697 3.30435084 0.89554742 5.0506862 -0.4375 8.25 C-0.72496094 8.95640625 -1.01242188 9.6628125 -1.30859375 10.390625 C-1.53675781 10.92171875 -1.76492187 11.4528125 -2 12 C-2.33 12 -2.66 12 -3 12 C-2.14285714 3.42857143 -2.14285714 3.42857143 0 0 Z " fill="#313437" transform="translate(99,222)"/>
<path d="M0 0 C2.97 0 5.94 0 9 0 C9 0.66 9 1.32 9 2 C7.576875 2.2165625 7.576875 2.2165625 6.125 2.4375 C3.1065506 2.82935399 3.1065506 2.82935399 1 4 C0.67 2.68 0.34 1.36 0 0 Z " fill="#36383A" transform="translate(262,118)"/>
<path d="M0 0 C1.48262169 2.96524337 0.83538959 4.85122387 0 8 C-2.0625 9.875 -2.0625 9.875 -4 11 C-3.39301257 6.87248551 -1.96189209 3.6678852 0 0 Z " fill="#222B5D" transform="translate(155,65)"/>
<path d="M0 0 C4.05606165 0.46800711 7.46588679 0.87953208 11 3 C8.83032311 3.95465783 7.43671207 4.14401212 5.17578125 3.3984375 C3.4315257 2.64129615 1.71372869 1.82390802 0 1 C0 0.67 0 0.34 0 0 Z " fill="#343639" transform="translate(237,66)"/>
<path d="M0 0 C0.91058531 3.07322544 1.08886184 5.80097361 1 9 C-0.32 9.33 -1.64 9.66 -3 10 C-3 6.13304322 -1.58090029 3.4911548 0 0 Z " fill="#444749" transform="translate(61,340)"/>
<path d="M0 0 C0.66 0 1.32 0 2 0 C1.38461538 6.52307692 1.38461538 6.52307692 -0.5625 8.9375 C-1.036875 9.288125 -1.51125 9.63875 -2 10 C-1.54177532 6.53058454 -1.10868317 3.32604951 0 0 Z " fill="#34373A" transform="translate(92,84)"/>
<path d="M0 0 C0.99 0.33 1.98 0.66 3 1 C3.33 1.99 3.66 2.98 4 4 C3.01 4.99 2.02 5.98 1 7 C0.67 4.69 0.34 2.38 0 0 Z " fill="#3D4041" transform="translate(245,342)"/>
<path d="M0 0 C0.66 0 1.32 0 2 0 C1.67 1.32 1.34 2.64 1 4 C0.67 2.68 0.34 1.36 0 0 Z " fill="#5C5E5F" transform="translate(249,94)"/>
<path d="" fill="#606261" transform="translate(0,0)"/>
<path d="" fill="#5C5E60" transform="translate(0,0)"/>
<path d="M0 0 C3 1 3 1 3 1 Z " fill="#5E5F5F" transform="translate(71,121)"/>
<path d="M0 0 C3 1 3 1 3 1 Z " fill="#606163" transform="translate(44,121)"/>
<path d="M0 0 C3 1 3 1 3 1 Z " fill="#5F6161" transform="translate(244,66)"/>
<path d="" fill="#606062" transform="translate(0,0)"/>
<path d="" fill="#5F6161" transform="translate(0,0)"/>
<path d="" fill="#5D5F5D" transform="translate(0,0)"/>
<path d="" fill="#5C5D5C" transform="translate(0,0)"/>
<path d="M0 0 C2 1 2 1 2 1 Z " fill="#5E5F5F" transform="translate(69,181)"/>
<path d="M0 0 C2 1 2 1 2 1 Z " fill="#5F5F61" transform="translate(266,121)"/>
<path d="M0 0 C2 1 2 1 2 1 Z " fill="#5E6061" transform="translate(68,121)"/>
<path d="" fill="#626365" transform="translate(0,0)"/>
<path d="M0 0 C2 1 2 1 2 1 Z " fill="#5F5E60" transform="translate(59,89)"/>
<path d="" fill="#5F6364" transform="translate(0,0)"/>
<path d="M0 0 C2 1 2 1 2 1 Z " fill="#5D6061" transform="translate(268,74)"/>
<path d="M0 0 C2 1 2 1 2 1 Z " fill="#5E6162" transform="translate(183,70)"/>
<path d="" fill="#606262" transform="translate(0,0)"/>
<path d="" fill="#626361" transform="translate(0,0)"/>
<path d="" fill="#626662" transform="translate(0,0)"/>
<path d="" fill="#5F6062" transform="translate(0,0)"/>
<path d="" fill="#636463" transform="translate(0,0)"/>
<path d="" fill="#606160" transform="translate(0,0)"/>
<path d="" fill="#6C6861" transform="translate(0,0)"/>
<path d="" fill="#5F6261" transform="translate(0,0)"/>
<path d="" fill="#5E6260" transform="translate(0,0)"/>
<path d="" fill="#5D6061" transform="translate(0,0)"/>
<path d="" fill="#606262" transform="translate(0,0)"/>
<path d="" fill="#5C5D5F" transform="translate(0,0)"/>
<path d="" fill="#6C6761" transform="translate(0,0)"/>
<path d="" fill="#5F5D60" transform="translate(0,0)"/>
<path d="" fill="#5B5D5F" transform="translate(0,0)"/>
<path d="" fill="#5B5B5B" transform="translate(0,0)"/>
<path d="" fill="#6B675F" transform="translate(0,0)"/>
<path d="" fill="#5C6062" transform="translate(0,0)"/>
<path d="" fill="#5B5E5F" transform="translate(0,0)"/>
<path d="" fill="#5C5F5F" transform="translate(0,0)"/>
<path d="" fill="#5F5F60" transform="translate(0,0)"/>
<path d="" fill="#5B5E5F" transform="translate(0,0)"/>
<path d="" fill="#595D5D" transform="translate(0,0)"/>
<path d="" fill="#5B5D60" transform="translate(0,0)"/>
<path d="" fill="#5C5F5F" transform="translate(0,0)"/>
<path d="" fill="#5F5F62" transform="translate(0,0)"/>
<path d="" fill="#5C5F61" transform="translate(0,0)"/>
<path d="" fill="#616263" transform="translate(0,0)"/>
<path d="" fill="#585B5C" transform="translate(0,0)"/>
<path d="" fill="#5D5E60" transform="translate(0,0)"/>
<path d="" fill="#5A5D5D" transform="translate(0,0)"/>
<path d="" fill="#5D5E60" transform="translate(0,0)"/>
<path d="" fill="#5B5E61" transform="translate(0,0)"/>
<path d="" fill="#5B5D5E" transform="translate(0,0)"/>
<path d="" fill="#5C6160" transform="translate(0,0)"/>
<path d="" fill="#5D605F" transform="translate(0,0)"/>
<path d="" fill="#5A5C5E" transform="translate(0,0)"/>
<path d="" fill="#5D5E5F" transform="translate(0,0)"/>
<path d="" fill="#5D5F61" transform="translate(0,0)"/>
<path d="" fill="#5C5E5C" transform="translate(0,0)"/>
<path d="" fill="#55595C" transform="translate(0,0)"/>
<path d="" fill="#5C5D5E" transform="translate(0,0)"/>
<path d="" fill="#5F605F" transform="translate(0,0)"/>
<path d="" fill="#676360" transform="translate(0,0)"/>
<path d="" fill="#5A5C5C" transform="translate(0,0)"/>
<path d="" fill="#5C5D5F" transform="translate(0,0)"/>
<path d="" fill="#64635F" transform="translate(0,0)"/>
<path d="" fill="#5D6060" transform="translate(0,0)"/>
<path d="" fill="#5F5F61" transform="translate(0,0)"/>
<path d="" fill="#5D5F61" transform="translate(0,0)"/>
<path d="" fill="#62625D" transform="translate(0,0)"/>
<path d="" fill="#5E5E5C" transform="translate(0,0)"/>
<path d="" fill="#5E5E5E" transform="translate(0,0)"/>
<path d="" fill="#646360" transform="translate(0,0)"/>
<path d="" fill="#5D5E5D" transform="translate(0,0)"/>
<path d="" fill="#5D5D5C" transform="translate(0,0)"/>
<path d="" fill="#5D5F5F" transform="translate(0,0)"/>
<path d="" fill="#60625F" transform="translate(0,0)"/>
<path d="" fill="#5E5E61" transform="translate(0,0)"/>
<path d="" fill="#5F605E" transform="translate(0,0)"/>
<path d="" fill="#5C5E5E" transform="translate(0,0)"/>
<path d="" fill="#606261" transform="translate(0,0)"/>
<path d="" fill="#5F6060" transform="translate(0,0)"/>
<path d="" fill="#5D5F5F" transform="translate(0,0)"/>
<path d="" fill="#5D605F" transform="translate(0,0)"/>
<path d="" fill="#5F6160" transform="translate(0,0)"/>
<path d="" fill="#5E5F5E" transform="translate(0,0)"/>
<path d="" fill="#60605F" transform="translate(0,0)"/>
<path d="" fill="#626265" transform="translate(0,0)"/>
<path d="" fill="#616463" transform="translate(0,0)"/>
<path d="" fill="#636164" transform="translate(0,0)"/>
<path d="" fill="#636062" transform="translate(0,0)"/>
<path d="" fill="#5F6161" transform="translate(0,0)"/>
<path d="" fill="#606261" transform="translate(0,0)"/>
<path d="" fill="#616364" transform="translate(0,0)"/>
<path d="" fill="#606363" transform="translate(0,0)"/>
<path d="" fill="#626462" transform="translate(0,0)"/>
<path d="" fill="#616463" transform="translate(0,0)"/>
<path d="" fill="#5E6160" transform="translate(0,0)"/>
<path d="" fill="#5E5E5F" transform="translate(0,0)"/>
<path d="" fill="#616164" transform="translate(0,0)"/>
<path d="" fill="#5B5D5C" transform="translate(0,0)"/>
<path d="" fill="#616363" transform="translate(0,0)"/>
<path d="" fill="#60615F" transform="translate(0,0)"/>
<path d="" fill="#5B5C60" transform="translate(0,0)"/>
<path d="" fill="#5D6260" transform="translate(0,0)"/>
<path d="" fill="#5B5E60" transform="translate(0,0)"/>
<path d="" fill="#5F6264" transform="translate(0,0)"/>
<path d="" fill="#5E5F61" transform="translate(0,0)"/>
<path d="" fill="#5D5F5F" transform="translate(0,0)"/>
<path d="" fill="#5E5F5E" transform="translate(0,0)"/>
<path d="" fill="#5A5F60" transform="translate(0,0)"/>
<path d="" fill="#5C6161" transform="translate(0,0)"/>
<path d="" fill="#5B5D60" transform="translate(0,0)"/>
<path d="" fill="#606163" transform="translate(0,0)"/>
<path d="" fill="#616263" transform="translate(0,0)"/>
<path d="" fill="#606263" transform="translate(0,0)"/>
<path d="" fill="#5F6464" transform="translate(0,0)"/>
<path d="" fill="#5F6262" transform="translate(0,0)"/>
<path d="" fill="#5F6262" transform="translate(0,0)"/>
<path d="" fill="#606162" transform="translate(0,0)"/>
<path d="" fill="#616363" transform="translate(0,0)"/>
<path d="" fill="#606162" transform="translate(0,0)"/>
<path d="" fill="#606263" transform="translate(0,0)"/>
</svg>
